<svg width="137" height="22" viewBox="0 0 137 22" fill="none" xmlns="http://www.w3.org/2000/svg">
<path d="M9.325 17.375V21H7.15C5.6 21 4.39167 20.625 3.525 19.875C2.65833 19.1083 2.225 17.8667 2.225 16.15V10.6H0.525V7.05H2.225V3.65H6.5V7.05H9.3V10.6H6.5V16.2C6.5 16.6167 6.6 16.9167 6.8 17.1C7 17.2833 7.33333 17.375 7.8 17.375H9.325ZM13.8563 5.6C13.1063 5.6 12.4896 5.38333 12.0063 4.95C11.5396 4.5 11.3063 3.95 11.3063 3.3C11.3063 2.63333 11.5396 2.08333 12.0063 1.65C12.4896 1.2 13.1063 0.974999 13.8563 0.974999C14.5896 0.974999 15.1896 1.2 15.6563 1.65C16.1396 2.08333 16.3813 2.63333 16.3813 3.3C16.3813 3.95 16.1396 4.5 15.6563 4.95C15.1896 5.38333 14.5896 5.6 13.8563 5.6ZM15.9813 7.05V21H11.7063V7.05H15.9813ZM18.2293 14.025C18.2293 12.575 18.521 11.3083 19.1043 10.225C19.7043 9.14167 20.5293 8.30833 21.5793 7.725C22.646 7.14167 23.8626 6.85 25.2293 6.85C26.9793 6.85 28.4376 7.30833 29.6043 8.225C30.7876 9.14167 31.5626 10.4333 31.9293 12.1H27.3793C26.996 11.0333 26.2543 10.5 25.1543 10.5C24.371 10.5 23.746 10.8083 23.2793 11.425C22.8126 12.025 22.5793 12.8917 22.5793 14.025C22.5793 15.1583 22.8126 16.0333 23.2793 16.65C23.746 17.25 24.371 17.55 25.1543 17.55C26.2543 17.55 26.996 17.0167 27.3793 15.95H31.9293C31.5626 17.5833 30.7876 18.8667 29.6043 19.8C28.421 20.7333 26.9626 21.2 25.2293 21.2C23.8626 21.2 22.646 20.9083 21.5793 20.325C20.5293 19.7417 19.7043 18.9083 19.1043 17.825C18.521 16.7417 18.2293 15.475 18.2293 14.025ZM42.741 21L38.491 15.15V21H34.216V2.5H38.491V12.725L42.716 7.05H47.991L42.191 14.05L48.041 21H42.741ZM62.8201 13.8C62.8201 14.2 62.7951 14.6167 62.7451 15.05H53.0701C53.1368 15.9167 53.4118 16.5833 53.8951 17.05C54.3951 17.5 55.0035 17.725 55.7201 17.725C56.7868 17.725 57.5285 17.275 57.9451 16.375H62.4951C62.2618 17.2917 61.8368 18.1167 61.2201 18.85C60.6201 19.5833 59.8618 20.1583 58.9451 20.575C58.0285 20.9917 57.0035 21.2 55.8701 21.2C54.5035 21.2 53.2868 20.9083 52.2201 20.325C51.1535 19.7417 50.3201 18.9083 49.7201 17.825C49.1201 16.7417 48.8201 15.475 48.8201 14.025C48.8201 12.575 49.1118 11.3083 49.6951 10.225C50.2951 9.14167 51.1285 8.30833 52.1951 7.725C53.2618 7.14167 54.4868 6.85 55.8701 6.85C57.2201 6.85 58.4201 7.13333 59.4701 7.7C60.5201 8.26667 61.3368 9.075 61.9201 10.125C62.5201 11.175 62.8201 12.4 62.8201 13.8ZM58.4451 12.675C58.4451 11.9417 58.1951 11.3583 57.6951 10.925C57.1951 10.4917 56.5701 10.275 55.8201 10.275C55.1035 10.275 54.4951 10.4833 53.9951 10.9C53.5118 11.3167 53.2118 11.9083 53.0951 12.675H58.4451ZM72.8504 17.375V21H70.6754C69.1254 21 67.9171 20.625 67.0504 19.875C66.1837 19.1083 65.7504 17.8667 65.7504 16.15V10.6H64.0504V7.05H65.7504V3.65H70.0254V7.05H72.8254V10.6H70.0254V16.2C70.0254 16.6167 70.1254 16.9167 70.3254 17.1C70.5254 17.2833 70.8587 17.375 71.3254 17.375H72.8504ZM78.3816 9.175V17.25C78.3816 17.9167 78.5233 18.3917 78.8066 18.675C79.09 18.9417 79.5816 19.075 80.2816 19.075H81.9566V21H79.9066C78.64 21 77.69 20.7083 77.0566 20.125C76.4233 19.5417 76.1066 18.5833 76.1066 17.25V9.175H74.3316V7.3H76.1066V3.85H78.3816V7.3H81.9566V9.175H78.3816ZM86.9881 9.525C87.3881 8.74167 87.9548 8.13333 88.6881 7.7C89.4381 7.26667 90.3464 7.05 91.4131 7.05V9.4H90.8131C88.2631 9.4 86.9881 10.7833 86.9881 13.55V21H84.7131V7.3H86.9881V9.525ZM100.014 21.225C98.7309 21.225 97.5643 20.9333 96.5143 20.35C95.4809 19.7667 94.6643 18.9417 94.0643 17.875C93.4809 16.7917 93.1893 15.5417 93.1893 14.125C93.1893 12.725 93.4893 11.4917 94.0893 10.425C94.7059 9.34167 95.5393 8.51667 96.5893 7.95C97.6393 7.36667 98.8143 7.075 100.114 7.075C101.414 7.075 102.589 7.36667 103.639 7.95C104.689 8.51667 105.514 9.33333 106.114 10.4C106.731 11.4667 107.039 12.7083 107.039 14.125C107.039 15.5417 106.723 16.7917 106.089 17.875C105.473 18.9417 104.631 19.7667 103.564 20.35C102.498 20.9333 101.314 21.225 100.014 21.225ZM100.014 19.225C100.831 19.225 101.598 19.0333 102.314 18.65C103.031 18.2667 103.606 17.6917 104.039 16.925C104.489 16.1583 104.714 15.225 104.714 14.125C104.714 13.025 104.498 12.0917 104.064 11.325C103.631 10.5583 103.064 9.99167 102.364 9.625C101.664 9.24167 100.906 9.05 100.089 9.05C99.2559 9.05 98.4893 9.24167 97.7893 9.625C97.1059 9.99167 96.5559 10.5583 96.1393 11.325C95.7226 12.0917 95.5143 13.025 95.5143 14.125C95.5143 15.2417 95.7143 16.1833 96.1143 16.95C96.5309 17.7167 97.0809 18.2917 97.7643 18.675C98.4476 19.0417 99.1976 19.225 100.014 19.225ZM115.13 18.9L119.38 7.3H121.805L116.43 21H113.78L108.405 7.3H110.855L115.13 18.9ZM136.544 13.625C136.544 14.0583 136.519 14.5167 136.469 15H125.519C125.602 16.35 126.061 17.4083 126.894 18.175C127.744 18.925 128.769 19.3 129.969 19.3C130.952 19.3 131.769 19.075 132.419 18.625C133.086 18.1583 133.552 17.5417 133.819 16.775H136.269C135.902 18.0917 135.169 19.1667 134.069 20C132.969 20.8167 131.602 21.225 129.969 21.225C128.669 21.225 127.502 20.9333 126.469 20.35C125.452 19.7667 124.652 18.9417 124.069 17.875C123.486 16.7917 123.194 15.5417 123.194 14.125C123.194 12.7083 123.477 11.4667 124.044 10.4C124.611 9.33333 125.402 8.51667 126.419 7.95C127.452 7.36667 128.636 7.075 129.969 7.075C131.269 7.075 132.419 7.35833 133.419 7.925C134.419 8.49167 135.186 9.275 135.719 10.275C136.269 11.2583 136.544 12.375 136.544 13.625ZM134.194 13.15C134.194 12.2833 134.002 11.5417 133.619 10.925C133.236 10.2917 132.711 9.81667 132.044 9.5C131.394 9.16667 130.669 9 129.869 9C128.719 9 127.736 9.36667 126.919 10.1C126.119 10.8333 125.661 11.85 125.544 13.15H134.194Z" fill="black"/>
</svg>
